<svg width="18" height="18" viewBox="0 0 19 19" fill="none" xmlns="http://www.w3.org/2000/svg">
<path d="M9.11645 0.752441C8.80092 1.03119 8.35918 1.75595 9.11645 2.42495M9.11645 15.805C9.43198 16.0838 9.87372 16.8085 9.11645 17.4775M15.3884 2.84534C14.9439 2.81784 14.0715 3.0295 14.1375 4.09618M3.67725 13.7144C3.70476 14.1588 3.4931 15.0312 2.42641 14.9652M3.26494 2.84308C3.23741 3.28798 3.44928 4.16127 4.51705 4.09519M14.134 13.7165C14.5784 13.6905 15.4508 13.8906 15.3848 14.8992M17.479 9.11498C17.2002 8.79946 16.4755 8.35772 15.8065 9.11498M2.42641 8.69686C2.14766 9.01239 1.42291 9.45413 0.753906 8.69686" stroke="#E5E5E5" stroke-width="1.50526" stroke-linecap="round"/>
</svg>
